<?xml version="1.0" standalone="no"?>
<!DOCTYPE svg PUBLIC "-//W3C//DTD SVG 20010904//EN"
 "http://www.w3.org/TR/2001/REC-SVG-20010904/DTD/svg10.dtd">
<svg version="1.0" xmlns="http://www.w3.org/2000/svg"
 width="557.000000pt" height="430.000000pt" viewBox="0 0 557.000000 430.000000"
 preserveAspectRatio="xMidYMid meet">

<g transform="translate(0.000000,430.000000) scale(0.100000,-0.100000)"
fill="#000000" stroke="none">
<path d="M2258 4243 c-25 -29 -48 -80 -48 -108 l0 -26 -26 20 c-15 12 -34 21
-43 21 -9 -1 1 -10 21 -21 50 -26 65 -52 73 -129 7 -57 6 -63 -8 -52 -8 7 -20
26 -27 43 -7 16 -24 36 -38 43 -29 15 -68 112 -48 120 6 2 -2 5 -18 5 -26 1
-28 -1 -14 -11 12 -10 38 -67 38 -85 0 -2 -9 1 -20 7 -12 6 -33 10 -48 8 -24
-3 -27 -7 -24 -36 1 -21 -2 -31 -8 -27 -5 3 -10 15 -10 25 0 20 -75 90 -97 90
-16 0 -18 -56 -3 -94 13 -34 -12 -47 -79 -41 -35 3 -51 0 -51 -8 1 -21 36 -91
53 -106 24 -19 21 -2 -3 24 -11 11 -23 35 -26 52 l-6 32 48 -2 c27 -1 57 2 67
7 12 6 17 4 17 -9 0 -9 -4 -14 -9 -11 -5 3 -20 -4 -35 -15 -19 -15 -26 -30
-26 -54 0 -40 33 -68 104 -89 47 -14 110 -59 99 -70 -4 -3 2 -6 12 -6 15 0 17
-6 12 -47 -3 -26 1 -67 8 -92 8 -25 16 -57 18 -71 4 -22 4 -21 6 6 1 24 7 33
23 37 30 8 35 1 15 -21 -10 -10 -17 -22 -17 -27 0 -4 9 3 20 16 11 13 24 30
30 37 6 6 36 13 68 13 71 2 101 5 108 11 8 9 -8 38 -17 32 -5 -3 -9 -1 -9 5 0
13 37 24 50 16 8 -5 7 -11 -1 -21 -14 -18 0 -18 23 0 16 12 16 14 -8 24 -14 7
-31 12 -39 12 -11 0 -12 6 -5 26 12 31 12 37 1 30 -12 -8 -34 21 -26 34 10 16
38 12 31 -5 -3 -8 -1 -15 4 -15 6 0 10 12 10 26 0 19 -4 25 -15 20 -8 -3 -15
-1 -15 5 0 6 -7 6 -20 -1 -11 -6 -18 -15 -15 -21 4 -5 -1 -9 -9 -9 -20 0 -20
7 0 27 15 16 32 20 82 22 12 1 22 5 22 10 0 5 -9 7 -20 4 -14 -4 -20 0 -20 10
0 8 -5 17 -11 19 -6 2 11 27 39 56 28 29 56 69 62 88 9 27 15 33 21 23 12 -19
11 -86 -1 -94 -5 -3 -10 1 -10 9 0 9 -4 16 -9 16 -10 0 -21 -35 -21 -71 0 -14
-6 -31 -12 -38 -10 -11 -10 -13 0 -7 8 5 12 0 12 -13 0 -10 9 -40 19 -64 11
-25 18 -47 17 -49 -2 -1 -6 -22 -10 -46 -6 -42 -6 -42 21 -36 16 4 33 11 39
16 6 4 19 6 28 2 11 -4 15 -2 11 7 -7 20 14 43 63 68 55 28 54 21 -3 -15 -25
-15 -45 -32 -45 -36 0 -12 6 -10 46 17 21 14 57 31 81 36 23 6 48 17 54 25 6
8 30 15 53 16 37 1 38 2 9 5 -38 5 -38 6 -17 38 19 28 36 95 24 95 -4 0 -10
-17 -14 -38 -8 -50 -38 -89 -79 -101 -18 -5 -41 -12 -52 -16 -19 -6 -19 -6 2
12 29 25 73 92 73 112 -1 9 -7 2 -14 -15 -15 -35 -83 -114 -97 -114 -5 0 -27
-11 -49 -25 -22 -14 -40 -22 -39 -18 3 20 -2 27 -11 13 -17 -26 -12 113 6 169
21 64 44 87 73 72 11 -6 35 -11 53 -11 19 0 44 -7 57 -16 18 -13 25 -14 31 -4
6 10 15 10 39 2 17 -6 31 -7 31 -2 0 4 -18 11 -40 15 -23 4 -40 12 -40 20 0
20 -30 47 -46 41 -7 -3 -16 -1 -19 3 -5 9 -63 0 -83 -13 -6 -4 -16 3 -22 14
-15 28 -35 25 -63 -11 l-24 -31 -7 46 c-9 56 -24 56 -43 -1 -14 -42 -58 -92
-70 -79 -4 4 5 31 19 59 15 29 30 68 32 87 5 34 5 34 -8 -6 -8 -22 -23 -59
-35 -82 -11 -23 -21 -50 -21 -60 0 -11 -7 -25 -15 -32 -8 -7 -15 -17 -15 -23
0 -18 -31 -46 -46 -40 -9 3 -12 0 -9 -9 9 -24 -18 -40 -40 -24 -13 10 -15 17
-8 31 7 12 13 14 17 6 4 -6 1 -11 -6 -11 -8 0 -6 -5 5 -11 10 -6 21 -8 24 -5
12 11 -41 67 -87 92 -28 15 -50 30 -50 34 0 4 -21 22 -47 40 -26 19 -41 36
-34 38 15 5 47 -16 111 -73 28 -25 58 -45 67 -45 10 0 27 -12 40 -27 l23 -28
-15 31 c-8 17 -22 62 -30 100 -9 38 -20 88 -25 112 -15 64 -12 84 16 128 21
33 32 41 57 41 36 0 102 -61 119 -108 5 -16 16 -29 23 -29 7 0 18 -12 23 -27
10 -26 10 -26 11 -5 1 32 -26 95 -40 90 -6 -2 -32 18 -58 44 -53 53 -95 63
-123 31z m196 -99 c9 -22 -3 -32 -14 -14 -12 19 -12 30 -1 30 5 0 12 -7 15
-16z m-492 -57 c32 -23 54 -75 38 -91 -18 -18 -11 -31 46 -79 53 -44 60 -47
113 -47 32 0 60 -3 63 -6 9 -8 -18 -57 -46 -83 l-24 -22 -36 35 c-19 20 -40
36 -45 36 -6 0 -17 12 -25 28 -8 15 -36 52 -62 82 -53 62 -74 105 -74 150 0
33 2 33 52 -3z m161 -48 c21 -17 47 -49 58 -71 14 -28 23 -37 29 -28 5 9 9 9
14 1 4 -6 11 -9 15 -7 4 3 8 -4 8 -15 2 -17 -1 -18 -13 -9 -8 7 -14 9 -14 6 0
-4 -26 15 -57 43 -32 27 -71 53 -88 57 -16 4 -33 12 -37 18 -31 45 32 49 85 5z
m457 -44 c9 -11 6 -26 -16 -72 -20 -43 -29 -79 -32 -138 l-5 -80 -13 40 -13
40 6 -45 c11 -76 6 -109 -15 -96 -5 3 -8 36 -6 73 3 43 1 61 -4 49 -8 -18 -10
-16 -20 14 -15 42 -15 73 0 88 22 22 31 12 25 -30 -5 -42 -5 -42 5 -10 8 23 8
39 1 55 -8 17 -7 29 4 48 13 22 14 17 10 -61 -3 -49 -1 -77 3 -65 5 11 9 51 9
88 1 44 7 76 17 92 19 29 27 31 44 10z m-489 -37 c106 -87 99 -78 59 -77 -39
0 -60 10 -115 56 -33 27 -36 34 -25 47 18 22 22 21 81 -26z m656 -2 c14 -27
14 -28 -3 -21 -11 4 -41 11 -68 16 -54 9 -61 13 -51 28 3 6 29 10 56 9 45 -2
53 -6 66 -32z m-759 -37 c45 -53 85 -126 77 -139 -4 -7 -18 -1 -36 14 -17 14
-47 30 -68 36 -78 21 -114 76 -75 114 28 29 66 19 102 -25z m482 -13 c0 -8 -4
-18 -10 -21 -5 -3 -10 3 -10 14 0 12 5 21 10 21 6 0 10 -6 10 -14z m-110 -76
c0 -5 -7 -10 -15 -10 -8 0 -15 5 -15 10 0 6 7 10 15 10 8 0 15 -4 15 -10z
m-251 -60 c1 11 4 11 13 2 10 -10 10 -15 -2 -22 -22 -14 -27 -12 -34 13 -11
43 -5 64 9 27 7 -19 14 -28 14 -20z m170 -15 c1 -10 -83 -95 -92 -95 -3 0 -8
8 -10 18 -4 14 -5 14 -6 1 0 -9 5 -21 12 -27 10 -9 22 -1 51 33 38 47 66 58
66 27 0 -10 9 -35 20 -57 11 -22 20 -40 20 -42 0 -3 -55 -11 -112 -16 -45 -4
-48 -3 -48 19 0 12 -5 26 -11 30 -6 4 -9 20 -6 39 3 17 2 38 -3 45 -5 9 2 24
23 44 l32 31 32 -20 c18 -11 32 -24 32 -30z m45 -21 c3 -9 6 -28 6 -42 -1 -31
-13 -15 -24 31 -7 29 8 38 18 11z m426 12 c0 -2 -9 -6 -20 -9 -11 -3 -20 -1
-20 4 0 5 9 9 20 9 11 0 20 -2 20 -4z m-615 -16 c-8 13 -7 13 8 1 18 -15 24
-36 7 -26 -14 8 -2 -44 14 -64 8 -11 8 -15 -1 -18 -7 -3 -13 -13 -13 -24 0
-31 -20 -22 -36 16 -15 36 -18 82 -8 109 5 14 9 14 22 4 13 -11 14 -11 7 2z
m415 -55 c0 -8 -7 -15 -15 -15 -9 0 -12 6 -9 15 4 8 10 15 15 15 5 0 9 -7 9
-15z"/>
<path d="M2878 3750 c30 -12 28 -18 -15 -64 l-38 -39 33 22 c56 39 68 92 20
90 l-23 0 23 -9z"/>
<path d="M2576 3601 c-21 -9 -31 -11 -34 -3 -7 21 -31 5 -118 -78 -26 -25 -34
-25 -27 -2 2 10 17 26 34 37 16 11 29 24 29 28 0 5 -12 -1 -27 -13 -16 -12
-29 -17 -31 -11 -2 6 -15 11 -28 11 -19 0 -24 -5 -25 -27 -2 -35 -2 -31 6 -73
6 -33 3 -39 -42 -83 -45 -45 -48 -46 -55 -26 -12 32 -18 19 -9 -21 8 -35 -10
-90 -29 -90 -10 0 -65 140 -75 192 -4 21 -11 35 -16 32 -10 -6 -9 -14 36 -179
41 -148 43 -153 76 -190 15 -16 41 -46 58 -66 16 -19 49 -45 73 -57 30 -16 52
-37 70 -70 33 -58 72 -96 120 -116 21 -9 40 -25 44 -38 8 -28 35 -70 41 -65 2
2 -8 25 -23 51 -17 31 -37 51 -60 61 -19 8 -34 16 -34 17 0 2 18 4 39 3 38 0
40 -2 66 -58 15 -32 28 -57 30 -55 2 2 -11 36 -30 76 -19 40 -35 82 -35 94 0
12 -10 32 -22 45 l-21 23 24 0 c13 0 31 5 39 11 12 8 11 9 -5 6 -11 -3 -38 -8
-60 -11 l-40 -6 38 20 c51 28 47 36 -4 9 -37 -18 -47 -20 -88 -9 -97 24 -145
69 -195 182 -21 47 -22 57 -10 62 8 3 14 18 14 34 0 16 13 47 28 68 34 46 50
60 77 67 19 4 19 5 -2 6 -14 1 -36 -15 -62 -45 -26 -30 -41 -41 -41 -30 0 26
84 102 109 98 12 -2 21 -8 21 -13 0 -5 5 -9 10 -9 18 0 10 22 -10 27 -44 12
-16 61 80 142 32 26 37 28 55 15 21 -16 71 -19 79 -5 4 5 3 18 -1 28 -7 17
-10 18 -37 4z m29 -21 c-3 -5 -17 -10 -31 -10 -14 0 -22 4 -19 10 3 6 17 10
31 10 14 0 22 -4 19 -10z m-215 -31 c0 -6 -7 -17 -15 -25 -13 -14 -15 -13 -15
10 0 16 6 26 15 26 8 0 15 -5 15 -11z m0 -56 c-1 -18 -18 -35 -24 -24 -4 6 -4
16 -1 21 7 12 25 13 25 3z m-174 -263 c3 -2 14 6 24 20 l20 25 0 -27 c0 -18
-5 -28 -15 -28 -16 0 -21 -25 -6 -35 5 -3 12 -19 16 -36 4 -16 21 -49 39 -72
43 -56 52 -72 37 -63 -10 6 -52 59 -109 136 -10 14 -42 118 -42 138 0 4 7 -6
16 -23 8 -16 17 -32 20 -35z m251 -276 c-3 -3 -12 -4 -19 -1 -8 3 -5 6 6 6 11
1 17 -2 13 -5z m103 -52 c17 -63 14 -75 -17 -67 -35 8 -51 24 -56 52 -2 12 -6
25 -10 29 -3 4 -4 -6 -1 -21 6 -33 -9 -26 -29 13 l-14 29 58 1 58 2 11 -38z"/>
<path d="M2638 3613 c6 -2 18 -2 25 0 6 3 1 5 -13 5 -14 0 -19 -2 -12 -5z"/>
<path d="M2690 3601 c0 -6 5 -11 11 -11 7 0 8 -7 4 -17 -4 -10 -17 -52 -30
-93 -12 -41 -29 -88 -39 -105 -17 -30 -17 -30 -12 46 3 42 8 85 12 95 5 16 4
16 -5 4 -8 -10 -13 -12 -18 -4 -14 19 -53 35 -72 29 -41 -13 -53 -104 -27
-202 12 -46 12 -53 0 -53 -22 0 -16 -17 14 -40 15 -12 28 -30 28 -41 1 -10 11
-42 24 -70 14 -33 21 -66 18 -90 -3 -38 4 -47 28 -31 7 4 13 16 15 27 3 14 16
21 48 27 24 4 49 12 55 17 7 6 22 8 33 5 14 -4 29 2 43 16 17 17 31 21 60 18
21 -2 36 0 34 4 -3 5 -42 8 -86 8 -80 0 -81 0 -63 20 14 16 31 20 76 20 62 0
101 12 136 43 13 11 29 17 38 13 14 -5 12 -12 -16 -47 -18 -22 -42 -45 -53
-49 -14 -6 -16 -9 -5 -9 16 -1 36 16 82 68 22 26 25 33 12 37 -10 4 -13 14 -8
31 4 19 0 30 -15 42 -17 13 -22 28 -25 76 l-2 60 -45 -1 c-141 -5 -170 -15
-199 -75 -13 -27 -32 -56 -42 -65 -20 -18 -89 -28 -89 -13 0 5 7 9 16 9 44 0
124 136 124 210 0 17 4 30 9 30 15 0 23 -37 17 -73 -5 -24 -4 -27 3 -12 5 11
10 29 10 40 1 26 -47 97 -60 90 -5 -4 -8 -1 -7 6 2 7 -5 15 -14 17 -10 2 -18
-1 -18 -7z m50 -80 c0 -59 -28 -126 -72 -173 -43 -47 -44 -44 -5 67 14 39 30
89 36 112 15 54 41 49 41 -6z m-151 3 c23 -16 23 -19 16 -120 -7 -111 -2 -149
21 -140 23 9 16 -11 -12 -33 -15 -12 -22 -21 -16 -21 7 0 33 21 59 46 l48 45
8 -53 c16 -111 7 -148 -40 -148 -25 0 -76 46 -67 61 3 5 1 17 -5 26 -8 15 -9
13 -7 -10 1 -15 6 -30 9 -34 4 -3 7 -16 7 -27 0 -14 -8 -5 -21 24 -11 25 -18
54 -14 67 4 17 -2 26 -25 40 -16 9 -30 21 -30 25 0 14 14 8 42 -19 22 -21 31
-24 40 -15 10 10 10 15 -2 22 -8 5 -18 6 -24 3 -5 -3 -6 -1 -2 5 3 6 -2 13
-13 17 -28 8 -45 67 -46 151 0 97 22 124 74 88z m388 -147 c3 -44 0 -54 -19
-69 -13 -9 -19 -20 -15 -25 5 -4 15 1 23 12 11 15 18 17 32 9 9 -6 18 -19 20
-28 3 -13 -5 -16 -36 -16 -24 0 -47 -7 -61 -19 -21 -18 -109 -46 -118 -37 -9
9 156 238 166 229 3 -2 6 -27 8 -56z m-51 31 c-9 -13 -42 -61 -74 -108 -57
-85 -57 -85 -60 -51 -2 23 4 44 19 64 12 17 22 44 23 61 1 26 7 33 36 43 19 7
43 12 54 12 17 1 17 0 2 -21z m-106 -31 c-3 -24 -14 -54 -23 -67 -10 -15 -17
-44 -17 -71 0 -54 -19 -79 -41 -53 -23 28 -17 122 11 169 45 77 80 88 70 22z
m155 -143 c-31 -25 -82 -44 -112 -43 -26 1 -25 2 9 11 20 5 44 18 54 29 9 10
29 19 43 19 25 -1 26 -1 6 -16z m-237 -140 c-3 -2 -20 -6 -39 -9 -26 -4 -29
-3 -14 4 12 5 27 17 35 26 14 17 15 17 18 1 2 -10 2 -19 0 -22z m65 15 c-7 -7
-20 -8 -34 -3 -23 8 -23 8 6 14 35 7 43 4 28 -11z m-173 -59 c0 -11 -4 -20
-10 -20 -5 0 -10 9 -10 20 0 11 5 20 10 20 6 0 10 -9 10 -20z"/>
<path d="M2651 3574 c-16 -37 -9 -39 11 -3 9 16 14 29 9 29 -4 0 -13 -12 -20
-26z"/>
<path d="M2019 3363 c-12 -3 -17 -15 -17 -37 0 -39 -16 -73 -46 -98 -30 -25
-36 -22 -36 16 0 44 -9 66 -25 66 -19 0 -34 -58 -37 -141 -1 -37 6 -58 34
-105 20 -32 50 -103 68 -157 22 -67 45 -115 75 -155 23 -31 53 -76 65 -99 12
-24 28 -43 36 -43 7 0 36 -14 64 -31 28 -17 72 -37 97 -45 26 -8 57 -24 69
-35 23 -21 23 -22 4 -48 -25 -35 -62 -179 -54 -213 5 -24 10 -28 43 -28 46 0
90 22 164 83 32 26 59 47 61 47 2 0 3 -33 2 -72 -1 -94 18 -132 81 -160 39
-17 54 -19 97 -11 l51 10 -67 -1 c-110 -1 -154 47 -150 167 1 52 7 77 27 110
14 24 25 50 25 57 0 22 -28 -9 -40 -45 -16 -49 -175 -166 -234 -172 -66 -8
-69 14 -24 157 26 83 32 90 71 84 36 -5 63 8 53 25 -4 6 -15 11 -24 10 -11 0
-12 -3 -4 -6 22 -9 13 -23 -15 -23 -22 0 -25 2 -13 10 12 8 11 10 -6 10 -12 0
-27 7 -34 15 -11 13 -8 16 19 21 17 4 31 10 31 14 0 4 11 5 25 3 33 -7 104 29
145 74 l35 37 -39 -33 c-41 -35 -110 -70 -136 -71 -9 0 -23 9 -33 20 -19 22
-25 24 -47 10 -12 -8 -13 -13 -3 -29 10 -15 10 -21 0 -24 -26 -9 -182 91 -199
129 -17 37 -1 41 35 7 35 -34 68 -53 89 -53 7 1 0 7 -17 14 -16 8 -43 28 -59
45 -36 38 -66 41 -66 7 0 -24 55 -82 100 -106 12 -6 19 -14 16 -17 -9 -9 -126
68 -126 83 0 8 -11 19 -24 24 -14 5 -30 19 -37 32 -7 13 -24 39 -39 58 -38 49
-53 80 -96 200 -20 58 -48 119 -60 136 -19 25 -24 42 -23 90 3 119 28 160 40
64 4 -28 9 -53 12 -56 4 -5 61 57 85 92 12 18 13 18 8 -3 -2 -12 2 -30 10 -40
20 -27 17 -44 -16 -96 -16 -26 -30 -53 -30 -59 0 -15 63 -107 73 -108 4 0 -3
15 -16 33 -49 65 -50 71 -18 129 36 66 60 163 43 180 -7 7 -12 20 -12 29 0 21
-9 27 -31 22z m401 -798 c10 -13 9 -15 -8 -15 -22 0 -36 13 -25 24 10 10 20 7
33 -9z"/>
<path d="M2890 3024 c-7 -8 -17 -14 -23 -14 -5 0 -27 -18 -47 -40 -46 -50 -64
-108 -44 -145 7 -14 11 -31 8 -39 -3 -7 2 -13 11 -13 19 0 19 8 0 33 -16 22
-20 90 -5 99 6 4 10 -8 10 -30 0 -35 1 -36 29 -30 20 4 42 0 70 -14 53 -28
111 -26 111 2 0 7 -4 7 -12 -1 -7 -7 -16 -12 -20 -12 -5 0 -40 29 -78 65 -38
36 -75 65 -82 66 -7 0 -3 4 10 9 12 5 22 17 22 25 0 9 5 13 11 10 5 -4 19 1
30 11 19 17 22 18 50 2 18 -11 42 -15 66 -13 l38 5 -32 -12 -33 -11 26 -23
c30 -29 38 -30 24 -5 -5 11 -10 22 -10 25 0 11 31 6 60 -9 38 -19 40 -56 5
-83 -17 -14 -24 -28 -22 -48 2 -25 -2 -29 -28 -32 -18 -2 -42 -17 -60 -37 -16
-18 -57 -49 -90 -69 -33 -20 -56 -36 -51 -36 14 0 141 77 155 94 10 11 18 12
35 4 l23 -10 -25 -45 c-13 -24 -31 -47 -38 -50 -7 -2 -21 -17 -30 -31 -15 -23
-15 -25 -1 -14 12 10 28 11 70 3 77 -14 122 1 155 54 38 58 37 159 0 235 -24
50 -33 58 -89 83 -44 20 -72 27 -93 23 -18 -4 -35 -1 -45 7 -26 23 -49 27 -61
11z m253 -82 c42 -47 65 -155 47 -222 -6 -24 -24 -56 -40 -72 -24 -24 -36 -28
-82 -27 -29 0 -61 4 -71 8 -17 6 -17 8 1 25 11 9 26 30 32 46 7 16 23 36 37
45 17 11 22 22 18 33 -16 41 -11 83 13 98 19 13 23 23 20 50 -4 38 2 42 25 16z
m-252 -59 c32 -31 57 -58 55 -61 -3 -2 -21 6 -41 18 -25 16 -45 21 -66 16 -29
-5 -29 -5 -29 39 0 25 5 45 11 45 6 0 37 -25 70 -57z m179 -103 c0 -5 -11 -10
-25 -10 -14 0 -25 5 -25 10 0 6 11 10 25 10 14 0 25 -4 25 -10z"/>
<path d="M2073 2946 c15 -21 6 -28 -13 -11 -11 10 -23 15 -27 12 -3 -4 -1 -7
4 -7 6 0 28 -23 48 -50 20 -28 41 -48 45 -45 5 3 12 0 16 -6 4 -8 3 -9 -4 -5
-25 15 -10 -9 28 -46 45 -44 45 -45 28 -51 -7 -2 -4 -3 7 -1 11 2 56 -10 100
-25 74 -27 80 -31 80 -56 0 -23 -6 -31 -35 -41 -23 -8 -28 -13 -15 -13 49 -2
86 60 53 86 -7 6 -43 20 -80 32 -60 20 -73 30 -119 84 -28 34 -54 62 -58 62
-13 0 -31 17 -31 28 0 6 7 2 15 -9 8 -10 14 -14 15 -9 0 6 -15 26 -33 45 -17
20 -29 31 -24 26z m95 -141 c-3 -3 -9 2 -12 12 -6 14 -5 15 5 6 7 -7 10 -15 7
-18z"/>
<path d="M2030 2917 c-1 -49 95 -177 133 -177 7 0 -2 9 -20 20 -36 22 -78 80
-99 137 -7 21 -13 30 -14 20z"/>
<path d="M2890 2740 c-25 -16 -40 -30 -34 -30 5 0 14 4 20 10 5 5 27 19 49 29
22 11 33 20 25 21 -8 0 -35 -14 -60 -30z"/>
<path d="M2724 2714 c-17 -18 -29 -35 -27 -38 5 -4 20 10 57 52 31 35 4 23
-30 -14z"/>
<path d="M2792 2725 c-15 -31 -16 -65 -2 -65 5 0 7 6 4 13 -3 8 0 26 6 42 14
36 7 43 -8 10z"/>
<path d="M2442 2705 c-12 -15 -22 -35 -22 -44 1 -9 7 -2 15 16 9 20 23 35 40
39 28 7 112 -13 122 -29 4 -6 -3 -8 -17 -4 -33 8 -83 -15 -109 -51 -15 -21
-27 -29 -38 -25 -11 4 -14 3 -9 -5 12 -20 27 -14 65 30 34 38 41 41 81 40 25
-1 53 -5 65 -8 11 -3 -2 9 -28 27 -32 21 -64 34 -96 37 -43 4 -50 1 -69 -23z"/>
<path d="M2763 2633 c-21 -8 -15 -22 7 -16 11 3 36 -4 55 -16 38 -22 56 -27
40 -12 -10 9 -84 52 -88 50 -1 0 -8 -3 -14 -6z"/>
<path d="M2900 2550 c14 -11 29 -20 34 -20 5 0 -3 9 -17 20 -14 11 -29 20 -34
20 -4 0 3 -9 17 -20z"/>
<path d="M4169 2514 c-9 -11 -9 -14 0 -14 7 0 10 -4 6 -10 -3 -5 -3 -21 1 -36
l7 -27 19 24 19 24 -15 -32 c-9 -18 -16 -40 -15 -50 0 -10 7 0 15 22 8 22 26
51 42 64 l27 24 -27 -6 c-23 -6 -28 -4 -28 11 0 22 -34 26 -51 6z m31 -34 c-6
-12 -14 -19 -17 -17 -2 3 1 15 7 27 6 12 14 19 17 17 2 -3 -1 -15 -7 -27z"/>
<path d="M2960 2510 c8 -5 20 -10 25 -10 6 0 3 5 -5 10 -8 5 -19 10 -25 10 -5
0 -3 -5 5 -10z"/>
<path d="M3048 2493 c7 -3 16 -2 19 1 4 3 -2 6 -13 5 -11 0 -14 -3 -6 -6z"/>
<path d="M3030 2471 c0 -9 33 -21 59 -21 11 0 9 4 -5 15 -21 16 -54 20 -54 6z"/>
<path d="M3170 2446 c19 -13 59 -47 89 -76 l54 -51 -39 8 c-22 4 -82 7 -134 6
-52 -2 -120 -3 -150 -3 -69 0 -110 -16 -110 -42 0 -21 4 -21 92 10 45 15 48
15 68 -3 11 -10 20 -23 20 -29 0 -6 -35 -27 -78 -45 -48 -22 -93 -51 -120 -78
-24 -24 -39 -43 -35 -43 5 0 22 15 40 34 32 35 99 74 165 95 45 15 53 32 28
64 l-20 25 31 6 c100 20 270 -12 373 -70 45 -25 96 -76 96 -96 0 -7 -19 -8
-52 -5 -35 4 -46 3 -33 -3 32 -14 85 -12 91 4 14 37 -59 101 -155 136 -38 15
-75 39 -116 79 -69 67 -113 101 -129 101 -6 0 5 -11 24 -24z m-194 -133 c-4
-4 -25 -13 -47 -19 -42 -13 -55 0 -16 16 27 11 73 13 63 3z"/>
<path d="M4122 2424 c-7 -26 -11 -49 -9 -51 3 -2 8 9 12 24 3 15 10 30 14 33
5 3 5 13 2 23 -5 13 -10 5 -19 -29z"/>
<path d="M4140 2372 c0 -18 4 -32 8 -32 9 0 8 47 -1 57 -4 3 -7 -8 -7 -25z"/>
<path d="M4225 2370 c-10 -12 -24 -19 -31 -16 -8 3 -11 -1 -7 -10 4 -11 11 -9
35 11 43 36 57 31 21 -7 -34 -36 -53 -69 -53 -90 1 -7 7 2 15 20 8 18 28 44
45 58 16 14 30 32 30 40 0 21 -34 17 -55 -6z"/>
<path d="M4093 2315 c-6 -25 -8 -43 -4 -40 10 11 29 85 22 85 -4 0 -12 -20
-18 -45z"/>
<path d="M3125 2260 c-10 -16 18 -50 73 -87 29 -19 55 -33 58 -31 2 3 -18 19
-44 36 -53 34 -88 69 -79 78 3 3 45 -8 93 -25 49 -16 90 -29 92 -27 3 4 -164
66 -178 66 -5 0 -11 -4 -15 -10z"/>
<path d="M4015 2240 c3 -5 8 -10 11 -10 2 0 4 5 4 10 0 6 -5 10 -11 10 -5 0
-7 -4 -4 -10z"/>
<path d="M4048 2243 c7 -3 16 -2 19 1 4 3 -2 6 -13 5 -11 0 -14 -3 -6 -6z"/>
<path d="M3926 2215 c-40 -23 -108 -35 -221 -36 -77 -1 -125 -9 -125 -21 0 -5
4 -7 9 -4 13 8 161 18 293 20 64 1 120 5 124 9 4 4 -15 5 -42 2 -35 -4 -43 -3
-29 4 11 5 32 10 47 10 15 1 29 5 32 9 2 4 -12 7 -32 5 l-37 -3 30 15 c23 10
25 14 10 14 -11 -1 -37 -11 -59 -24z"/>
<path d="M4030 2205 c-8 -9 -8 -15 -2 -15 12 0 26 19 19 26 -2 2 -10 -2 -17
-11z"/>
<path d="M4020 2139 c-74 -38 -124 -67 -110 -63 28 7 270 134 255 133 -5 0
-71 -31 -145 -70z"/>
<path d="M2306 2105 c-4 -53 -12 -109 -18 -125 -5 -16 -8 -35 -5 -42 2 -7 9 3
14 22 8 30 14 35 41 38 17 2 64 -6 104 -17 40 -11 109 -22 153 -25 44 -2 67
-3 50 0 -86 13 -92 15 -103 40 -7 14 -12 35 -12 47 0 14 -3 18 -8 10 -6 -9
-16 -9 -44 0 -59 21 -70 35 -64 81 5 32 4 36 -4 19 -11 -27 -11 -133 0 -133 5
0 6 8 3 19 -5 21 12 37 22 21 3 -5 15 -10 25 -10 29 0 73 -42 65 -62 -6 -15
-12 -15 -76 3 -38 10 -84 19 -104 19 l-34 0 6 95 c3 52 4 95 1 95 -3 0 -8 -43
-12 -95z"/>
<path d="M3365 2181 c22 -11 47 -19 55 -19 17 0 -32 22 -70 32 -14 3 -7 -3 15
-13z"/>
<path d="M4065 2191 c-29 -26 -134 -51 -262 -62 -75 -6 -153 -17 -173 -24 -37
-13 -37 -13 -33 14 4 23 3 22 -14 -9 -10 -19 -18 -36 -17 -38 1 -1 24 6 51 17
32 13 88 22 159 26 60 4 129 11 154 16 56 12 150 50 150 61 0 10 -4 10 -15 -1z"/>
<path d="M2543 2150 c-5 -14 -13 -38 -17 -55 -6 -29 -6 -30 7 -6 12 19 15 21
20 7 4 -9 16 -16 27 -16 28 0 57 -16 103 -56 20 -19 45 -34 55 -35 9 -1 -1 -7
-23 -15 l-40 -14 35 5 c19 3 52 14 73 24 l37 18 0 -24 c0 -13 4 -22 9 -19 5 3
14 -7 19 -23 11 -30 161 -195 170 -187 2 3 -29 40 -71 82 -76 77 -101 119
-112 187 -3 20 -10 37 -15 37 -6 0 -10 -5 -10 -10 0 -6 -11 -22 -24 -35 -30
-30 -44 -26 -107 26 -25 21 -61 42 -80 46 -30 8 -35 14 -40 49 -5 38 -6 38
-16 14z"/>
<path d="M3270 2134 c0 -7 116 -58 180 -79 30 -10 72 -26 92 -36 35 -18 68
-17 68 2 0 15 -39 30 -56 21 -16 -9 -116 22 -226 71 -32 14 -58 24 -58 21z
m310 -104 c0 -5 -2 -10 -4 -10 -3 0 -8 5 -11 10 -3 6 -1 10 4 10 6 0 11 -4 11
-10z"/>
<path d="M3841 2059 c-14 -5 -47 -14 -75 -19 l-51 -9 51 4 c28 2 66 10 85 19
37 16 29 21 -10 5z"/>
<path d="M3631 2021 c-10 -6 1 -8 30 -4 24 3 46 7 48 9 10 9 -65 3 -78 -5z"/>
<path d="M2819 1918 c19 -82 78 -149 153 -174 26 -8 48 -18 48 -20 0 -12 -52
-83 -81 -111 -56 -52 -113 -76 -167 -70 -26 2 -56 8 -67 11 -11 4 -7 0 9 -9
45 -27 126 -16 182 23 l45 32 22 -24 c41 -44 218 -103 261 -86 13 5 29 4 37
-1 8 -5 19 -9 24 -9 6 1 2 5 -7 11 -10 5 -27 32 -39 60 -23 53 -83 113 -156
156 -24 14 -43 29 -43 34 0 4 -6 6 -14 3 -18 -7 -103 30 -135 59 -28 26 -60
92 -61 125 0 12 -4 22 -9 22 -5 0 -6 -15 -2 -32z m264 -223 c55 -32 122 -96
142 -135 9 -18 15 -34 12 -36 -2 -3 -26 15 -53 39 -46 42 -103 78 -121 77 -4
-1 8 -9 28 -20 19 -10 59 -40 88 -66 67 -60 53 -72 -50 -43 -90 25 -169 66
-169 89 0 25 21 40 60 41 l35 2 -32 6 -33 6 20 33 c11 17 22 32 26 32 3 0 24
-11 47 -25z"/>
<path d="M2235 1797 c-4 -26 -5 -51 -1 -54 3 -4 6 5 6 18 1 23 2 22 14 -6 7
-16 39 -58 69 -93 31 -34 63 -75 71 -90 15 -29 32 -102 23 -102 -2 0 -33 13
-68 29 -35 15 -89 36 -119 46 -67 22 -67 21 -48 42 20 24 48 98 48 126 0 12
-11 -9 -24 -48 -16 -46 -34 -79 -56 -98 -18 -16 -29 -31 -25 -35 4 -4 10 -1
12 6 3 6 13 12 22 12 27 0 185 -55 223 -77 29 -18 33 -24 31 -59 -4 -60 -30
-127 -73 -188 -49 -69 -53 -85 -6 -25 47 62 72 115 86 183 9 42 15 55 23 47
19 -19 25 -13 52 43 21 44 34 59 71 76 26 13 54 20 67 16 29 -7 78 15 75 34
-8 40 -108 33 -108 -7 -1 -11 -17 -26 -43 -38 -33 -16 -48 -31 -68 -72 -22
-46 -27 -51 -41 -40 -9 6 -18 30 -21 53 -6 55 -29 100 -78 154 -72 79 -89 107
-98 151 l-8 44 -8 -48z m455 -187 c13 -8 12 -11 -4 -23 -18 -13 -76 -11 -76 2
0 26 51 40 80 21z"/>
<path d="M2108 1488 c-32 -34 -100 -164 -112 -213 -7 -29 -7 -29 13 -11 22 20
29 42 9 30 -6 -4 -9 -3 -7 2 52 105 88 171 106 190 32 35 84 32 164 -8 77 -39
85 -63 45 -135 -14 -25 -26 -53 -26 -62 0 -9 14 13 30 47 36 76 37 102 8 129
-34 31 -116 63 -160 63 -32 0 -46 -6 -70 -32z"/>
<path d="M2825 1510 c-3 -5 36 -30 87 -56 50 -25 119 -63 152 -84 107 -66 150
-87 199 -99 26 -6 69 -26 95 -45 42 -30 289 -125 278 -107 -3 4 -55 25 -116
46 -62 21 -133 52 -159 70 -26 18 -71 40 -101 48 -30 9 -93 39 -140 67 -47 27
-130 73 -185 102 -113 58 -108 73 12 33 113 -38 230 -97 291 -148 36 -30 74
-50 115 -62 143 -41 225 -68 280 -94 31 -15 57 -24 57 -21 0 17 -130 66 -332
124 -34 10 -76 32 -105 56 -63 53 -178 112 -290 150 -95 32 -128 36 -138 20z"/>
<path d="M3331 1460 c19 -10 41 -25 48 -33 10 -13 7 -14 -28 -10 -33 5 -41 2
-51 -17 -34 -63 45 -115 98 -64 6 7 12 20 12 28 0 26 30 18 129 -34 92 -49
124 -63 86 -37 -38 26 -130 74 -177 92 -27 10 -50 26 -53 36 -6 17 -72 60 -92
59 -4 -1 8 -9 28 -20z m47 -56 c24 -7 30 -42 10 -62 -27 -27 -88 -8 -88 28 0
34 29 47 78 34z"/>
<path d="M2234 1418 c-22 -18 -61 -53 -87 -78 -79 -74 -109 -79 -90 -15 13 41
9 44 -12 11 -13 -19 -14 -29 -5 -45 16 -31 37 -26 98 27 31 26 53 40 50 32 -7
-19 -22 -98 -38 -202 -7 -42 -25 -101 -39 -132 -15 -30 -22 -51 -15 -45 24 20
53 108 74 229 12 69 23 134 24 144 1 15 51 70 85 93 2 2 2 6 -1 9 -3 3 -23
-10 -44 -28z"/>
<path d="M3686 1242 c42 -30 72 -49 64 -39 -15 17 -84 67 -93 67 -5 0 8 -13
29 -28z"/>
<path d="M2255 1176 c-16 -47 -26 -88 -22 -93 8 -8 56 45 57 62 0 6 -11 -3
-25 -20 -31 -39 -31 -32 4 59 16 42 26 76 22 76 -4 0 -20 -38 -36 -84z"/>
<path d="M1970 1201 c-13 -25 -41 -133 -36 -139 2 -2 6 5 9 15 3 10 10 39 17
66 12 43 25 65 35 55 2 -1 -1 -26 -6 -53 -5 -28 -11 -66 -15 -85 -3 -19 -3
-32 1 -29 10 10 34 160 28 175 -7 20 -21 17 -33 -5z"/>
<path d="M3770 1186 c0 -9 109 -76 123 -76 8 0 32 -12 53 -27 21 -15 80 -48
129 -73 56 -28 94 -54 101 -68 7 -13 17 -29 23 -35 19 -19 12 -28 -16 -21 -16
4 -42 22 -60 40 -18 18 -57 42 -88 53 -30 12 -78 32 -105 46 -27 14 -53 25
-57 25 -17 0 56 -38 132 -69 102 -41 163 -94 98 -84 -23 3 -25 2 -8 -5 11 -5
44 -12 73 -16 48 -6 52 -5 52 14 0 11 -7 23 -15 26 -8 4 -15 14 -15 24 0 23
-34 47 -120 87 -36 16 -87 44 -114 61 -28 18 -56 32 -64 32 -8 0 -37 16 -63
35 -47 33 -59 40 -59 31z"/>
<path d="M2618 1131 c-9 -3 -26 -18 -38 -33 -26 -34 -68 -36 -200 -13 -101 18
-90 17 -90 6 0 -5 9 -11 20 -14 23 -6 26 -28 8 -60 -14 -27 -49 -56 -102 -84
l-41 -22 50 0 c28 0 104 9 170 19 101 16 109 19 50 15 -38 -2 -79 -7 -90 -11
-12 -4 -17 -3 -12 2 5 5 54 26 110 46 56 20 95 37 87 37 -8 1 -71 -19 -139
-44 -135 -49 -190 -59 -133 -25 38 23 72 75 72 109 0 21 3 23 33 16 17 -5 72
-9 120 -11 49 -1 91 -5 95 -9 4 -4 -2 -13 -13 -22 -20 -15 -20 -15 0 -11 14 2
20 11 20 30 0 34 9 42 40 34 16 -4 37 -24 56 -56 26 -43 54 -70 72 -70 3 0 -9
15 -26 34 -18 19 -45 51 -60 70 -19 24 -37 36 -54 36 -13 0 -21 4 -18 10 3 6
19 10 35 10 22 0 36 -9 57 -37 51 -67 71 -83 100 -82 l28 1 -32 9 c-17 5 -42
23 -55 40 -53 71 -86 92 -120 80z"/>
<path d="M3765 1110 c61 -40 60 -39 52 -46 -3 -4 -34 4 -67 16 -33 12 -63 20
-66 17 -3 -3 23 -14 58 -26 55 -18 63 -24 65 -47 0 -15 12 -38 26 -52 21 -20
37 -25 98 -29 49 -4 86 -12 109 -26 l35 -20 -22 23 c-17 18 -36 24 -100 30
-43 4 -88 12 -101 19 -38 20 -54 89 -18 75 8 -3 17 -1 20 5 7 10 -85 76 -122
87 -9 3 6 -9 33 -26z"/>
<path d="M1922 990 c0 -19 2 -27 5 -17 2 9 2 25 0 35 -3 9 -5 1 -5 -18z"/>
<path d="M2833 995 c0 -9 10 -15 24 -15 13 0 23 -4 23 -10 0 -5 8 -10 18 -10
19 0 42 -18 42 -32 0 -13 -63 -9 -90 5 -29 15 -70 27 -70 21 0 -3 10 -9 23
-14 19 -8 17 -9 -18 -11 -22 -1 2 -6 54 -11 105 -10 127 -2 96 32 -10 11 -24
20 -32 20 -7 0 -13 5 -13 10 0 6 -9 10 -20 10 -11 0 -20 5 -20 10 0 6 -4 10
-8 10 -5 0 -9 -7 -9 -15z"/>
<path d="M1970 978 c0 -9 7 -23 15 -32 20 -19 19 -27 -2 -19 -11 4 -14 3 -9
-5 4 -7 16 -12 26 -12 10 0 22 -5 26 -12 5 -8 -2 -9 -25 -5 -33 7 -54 22 -64
47 -5 13 -5 13 -6 0 -1 -49 76 -72 169 -51 l45 10 -52 -5 c-57 -5 -76 8 -47
32 18 14 18 15 -2 5 -23 -11 -38 0 -62 44 -9 17 -11 17 -12 3z"/>
<path d="M2600 969 c0 -5 5 -7 10 -4 6 3 10 8 10 11 0 2 -4 4 -10 4 -5 0 -10
-5 -10 -11z"/>
<path d="M2665 957 c50 -29 75 -38 75 -29 -1 8 -91 52 -106 52 -5 0 9 -11 31
-23z"/>
<path d="M2565 940 c-33 -6 -26 -7 35 -7 47 0 68 3 55 8 -23 9 -35 9 -90 -1z"/>
<path d="M190 551 c-99 -32 -152 -96 -165 -197 -21 -153 83 -266 242 -265 37
0 83 5 102 10 35 11 114 61 107 68 -2 2 -20 -7 -41 -21 -47 -32 -96 -46 -163
-46 -86 0 -143 42 -167 124 -44 146 9 294 113 317 80 18 177 -16 212 -74 11
-18 20 -27 20 -20 0 18 -49 72 -81 89 -35 18 -143 27 -179 15z"/>
<path d="M2350 543 c-19 -10 -45 -33 -57 -52 l-23 -34 0 47 c0 44 -1 46 -30
46 l-30 0 0 -225 0 -225 128 0 c118 0 132 2 180 26 103 51 146 162 112 286
-30 108 -185 181 -280 131z m152 -24 c50 -36 72 -93 73 -189 0 -75 -3 -90 -28
-133 -40 -67 -83 -87 -192 -87 l-87 0 4 163 c3 173 13 212 62 247 48 35 118
34 168 -1z"/>
<path d="M3385 545 c-71 -25 -100 -89 -72 -158 19 -45 56 -64 159 -82 128 -23
179 -66 160 -137 -11 -46 -58 -68 -144 -68 -89 0 -118 23 -126 98 -5 53 -9 57
-49 46 -31 -8 -31 -61 -1 -99 31 -40 77 -55 168 -55 137 0 185 34 185 130 0
51 -4 63 -29 89 -34 35 -62 45 -165 61 -107 15 -147 52 -133 122 8 41 121 67
188 45 26 -9 44 -47 44 -92 0 -32 3 -35 29 -35 36 0 44 11 36 49 -9 43 -34 66
-88 85 -58 19 -109 20 -162 1z"/>
<path d="M640 325 l0 -225 163 2 162 2 -132 3 -133 4 0 219 0 220 -30 0 -30 0
0 -225z"/>
<path d="M1201 368 c-78 -224 -94 -275 -82 -263 4 6 21 47 36 93 l27 82 92 0
93 0 35 -87 c33 -84 36 -88 67 -91 39 -4 46 -30 -58 238 l-80 205 -33 3 -34 3
-63 -183z m111 55 c21 -54 41 -106 44 -115 6 -16 -2 -18 -81 -18 -66 0 -86 3
-82 12 2 7 19 59 38 116 18 56 36 102 39 102 3 0 22 -44 42 -97z"/>
<path d="M1670 326 l0 -226 30 0 30 0 0 219 0 218 45 -8 c86 -16 129 -51 167
-134 18 -41 23 -72 26 -172 l4 -123 29 0 29 0 0 225 0 225 -30 0 -30 0 0 -92
0 -93 -19 40 c-38 83 -117 135 -218 143 l-63 5 0 -227z"/>
<path d="M2810 325 l0 -225 163 2 162 2 -132 3 -133 4 0 108 0 109 100 -5 c70
-4 100 -2 100 6 0 7 -33 11 -100 11 l-100 0 0 100 0 99 133 4 132 3 -162 2
-163 2 0 -225z"/>
<path d="M3898 543 l92 -4 0 -219 0 -220 33 0 32 0 0 217 0 218 95 6 c59 3 11
5 -125 5 -121 0 -178 -2 -127 -3z"/>
<path d="M4387 544 c-4 -4 -7 -106 -7 -226 l0 -218 35 0 36 0 -3 223 -3 222
-25 3 c-14 2 -29 0 -33 -4z"/>
<path d="M4620 325 l0 -225 30 0 30 0 2 218 3 217 25 -3 c90 -11 158 -65 190
-148 16 -43 20 -78 20 -169 l0 -115 35 0 35 0 -2 223 -3 222 -30 0 -30 0 -5
-84 -5 -83 -22 45 c-37 77 -128 127 -230 127 l-43 0 0 -225z"/>
<path d="M5160 325 l0 -225 163 2 162 2 -132 3 -133 4 0 104 c0 58 3 105 8
106 4 0 49 2 100 4 130 4 128 15 -2 15 l-107 0 3 98 3 97 135 5 135 6 -167 2
-168 2 0 -225z"/>
</g>
</svg>
